<svg id="Capa_2" data-name="Capa 2" xmlns="http://www.w3.org/2000/svg" viewBox="0 0 133.82 133.82"><defs/><g id="Capa_1-2" data-name="Capa 1"><path class="cls-2" d="M133.82 66.91c0 36.95-29.96 66.91-66.91 66.91S0 103.87 0 66.91 29.96 0 66.91 0s66.91 29.96 66.91 66.91Z"/><path style="fill:#fff" d="M48.27 41.77 6.46 47.78l30.29 29.45-7.2 41.62 37.36-19.71 37.36 19.71-7.2-41.62 30.29-29.45-41.81-6.01-18.64-37.9-18.64 37.9z"/><path class="cls-2" d="M85.73 95.93h3.14v3.14h-3.14v-3.14ZM56.75 51.46V66.8c0 1.03-.19 1.91-.57 2.64-.38.72-.93 1.28-1.65 1.65-.72.38-1.6.57-2.64.57h-6.93V46.6h6.95c1.03 0 1.91.19 2.64.56.72.37 1.27.92 1.65 1.65.37.73.56 1.61.56 2.65Zm-2.88-.1c0-.65-.16-1.16-.47-1.52-.32-.36-.78-.53-1.39-.53h-4.17v19.65h4.17c.61 0 1.07-.18 1.39-.53.32-.36.47-.86.47-1.52V51.36Zm1.84 47.71-4.68-9.3c-.19.01-.37.03-.57.03h-2.62v4.24h-2.87V75.32h5.49c1.32 0 2.45.22 3.4.66.94.44 1.66 1.09 2.15 1.95.49.86.74 1.88.74 3.08v2.93c0 1.23-.24 2.28-.73 3.16-.49.88-1.21 1.55-2.15 2.01-.03.02-.07.03-.1.04l5.19 9.93h-3.24ZM50.7 87.09c.67 0 1.24-.12 1.71-.37s.83-.61 1.09-1.09c.25-.48.38-1.04.38-1.7v-2.59c0-.69-.12-1.29-.37-1.79s-.61-.89-1.09-1.15c-.48-.26-1.05-.39-1.71-.39h-2.86v9.07h2.86Zm32.67-28.42v35.37h-6.65c-.43 0-1.65.1-2.29-.32-.64-.42-1.13-1.03-1.47-1.84-.34-.81-.51-1.77-.51-2.89v-6.8c0-1.16.17-2.95.51-3.79.34-.83.83-1.47 1.46-1.9.64-.44 1.4-.65 2.3-.65h3.78v-16.7c0-1-.21-1.75-.64-2.24-.41-.48-1.03-.72-1.86-.73s-.05 0-.05 0h-2.61v15.51h-2.88V53.8h6.69c1.4 0 2.46.44 3.17 1.32.71.88 1.07 1.86 1.07 3.58Zm-2.88 20.57h-2.5c-.79 0-1.41.27-1.84.81-.44.54-.65 1.29-.65 2.26v5.77c0 .9.22 1.59.65 2.09.44.49 1.05.74 1.84.74h2.5V79.25Zm5.36-28.34h2.89v-2.88h-2.89v2.88Zm2.9 18.08v-15.2h-2.89v17.89h2.9v-2.69Zm-2.9 6.86v18.2h2.9v-18.2h-2.9ZM64.39 94.3c1.08 0 2.3-.2 3.06-.6.76-.4 1.35-.99 1.75-1.77.4-.78.6-1.7.6-2.78v-8.19c0-1.08-.2-2-.6-2.77-.4-.76-.99-1.35-1.75-1.75-.76-.4-1.98-.6-3.06-.6s-2.3.2-3.08.6c-.78.4-1.36.99-1.77 1.75-.4.76-.6 1.69-.6 2.77v8.13c0 1.09.2 2.03.6 2.81.4.78.99 1.38 1.77 1.78.78.41 2 .61 3.08.61Zm-.03-2.76c-.71 0-1.56-.21-1.95-.64-.39-.42-.59-1.03-.59-1.81v-8.08c0-.76.2-1.35.59-1.78.4-.43 1.24-.64 1.94-.64s1.56.21 1.97.64c.4.42.6 1.02.6 1.78v8.08c0 .78-.2 1.38-.59 1.81-.4.43-1.25.64-1.97.64Zm5.45-32.97v13.1H63.5c-1.52 0-2.65-.16-3.41-.99-.76-.83-1.14-2.09-1.14-3.77 0-2.01.46-3.51 1.38-4.51.92-.99 2.3-1.49 4.14-1.49h2.6v-2.34c0-.84-.23-1.49-.69-1.95-.46-.46-1.11-.69-1.95-.69-.74 0-1.31.23-1.72.69-.41.46-.61 1.11-.6 1.96l-2.79-.02c0-1.62.45-2.88 1.36-3.77.91-.89 2.19-1.34 3.84-1.34 1.11 0 2.07.2 2.86.6.79.4 1.4.98 1.81 1.74.41.76.62 1.68.62 2.76Zm-2.74 4.7h-2.59c-.94 0-1.65.3-2.12.9-.47.6-.71 1.51-.71 2.73 0 .9.21 1.56.63 1.99.4.41.99.61 1.77.64s3.01 0 3.01 0v-6.27Z"/></g></svg>